<svg xmlns="http://www.w3.org/2000/svg"  viewBox="0 0 48 48" width="48px" height="48px"><linearGradient id="SVGID_1_" x1="39.621" x2="8.379" y1="8.379" y2="39.621" gradientUnits="userSpaceOnUse"><stop offset="0" stop-color="#60fea4"/><stop offset=".033" stop-color="#6afeaa"/><stop offset=".197" stop-color="#97fec4"/><stop offset=".362" stop-color="#bdffd9"/><stop offset=".525" stop-color="#daffea"/><stop offset=".687" stop-color="#eefff5"/><stop offset=".846" stop-color="#fbfffd"/><stop offset="1" stop-color="#fff"/></linearGradient><path fill="url(#SVGID_1_)" d="M37.5,40.5h-27c-1.657,0-3-1.343-3-3v-27c0-1.657,1.343-3,3-3h27c1.657,0,3,1.343,3,3v27	C40.5,39.157,39.157,40.5,37.5,40.5z"/><polyline fill="none" stroke="#10e36c" stroke-linecap="round" stroke-linejoin="round" stroke-miterlimit="10" stroke-width="3" points="17.5,23.5 22.5,28.5 33,18"/><path fill="none" stroke="#10e36c" stroke-linecap="round" stroke-linejoin="round" stroke-miterlimit="10" stroke-width="3" d="M40.5,30.851V37.5c0,1.657-1.343,3-3,3h-27c-1.657,0-3-1.343-3-3V24"/><path fill="none" stroke="#10e36c" stroke-linecap="round" stroke-linejoin="round" stroke-miterlimit="10" stroke-width="3" d="M7.5,17.064V10.5c0-1.657,1.343-3,3-3h27c1.657,0,3,1.343,3,3v12.75"/></svg>